<svg version="1.1" xmlns="http://www.w3.org/2000/svg" xmlns:xlink="http://www.w3.org/1999/xlink" width="639.975" height="512.02648" viewBox="0,0,639.975,512.02648"><g transform="translate(80,76.00781)"><g data-paper-data="{&quot;isPaintingLayer&quot;:true}" fill="#ffffff" fill-rule="nonzero" stroke="none" stroke-width="1" stroke-linecap="butt" stroke-linejoin="miter" stroke-miterlimit="10" stroke-dasharray="" stroke-dashoffset="0" style="mix-blend-mode: normal"><path d="M206.8,412.8c-4.9,17 -22.6,26.8 -39.6,22c-17,-4.9 -26.8,-22.6 -22,-39.6l128,-447.99c4.9,-16.994 22.6,-26.834 39.6,-21.978c17,4.855 26.8,22.568 22,39.558zM550.6,157.4c12.5,12.5 12.5,32.7 0,45.2l-112,112c-12.5,12.5 -32.7,12.5 -45.2,0c-12.5,-12.5 -12.5,-32.7 0,-45.2l89.3,-89.4l-89.3,-89.4c-12.5,-12.5 -12.5,-32.7 0,-45.2c12.5,-12.5 32.7,-12.5 45.2,0zM-2.75,180l89.35,89.4c12.5,12.5 12.5,32.7 0,45.2c-12.5,12.5 -32.7,12.5 -45.2,0l-112.028,-112c-12.496,-12.5 -12.496,-32.7 0,-45.2l112.028,-112c12.5,-12.5 32.7,-12.5 45.2,0c12.5,12.5 12.5,32.7 0,45.2z"/></g></g></svg>