<svg version="1.1" xmlns="http://www.w3.org/2000/svg" xmlns:xlink="http://www.w3.org/1999/xlink" width="576.9" height="448" viewBox="0,0,576.9,448"><g transform="translate(48.9,44)"><g data-paper-data="{&quot;isPaintingLayer&quot;:true}" fill="#ffffff" fill-rule="nonzero" stroke="none" stroke-width="1" stroke-linecap="butt" stroke-linejoin="miter" stroke-miterlimit="10" stroke-dasharray="" stroke-dashoffset="0" style="mix-blend-mode: normal"><path d="M528,60c0,22.09 -17.91,40 -40,40c-0.248,0 -0.4551,-0.1266 -0.7031,-0.1305l-50.52,277.9c-2.7769,15.1305 -15.9769,26.2305 -31.4769,26.2305h-330.6c-15.46,0 -28.72,-11.06 -31.48,-26.27l-50.51,-277.83c-0.25,0 -0.46,0.1 -1.61,0.1c-22.09,0 -40,-17.91 -40,-40c0,-22.09 18.81,-40 40,-40c21.19,0 40,17.91 40,40c0,8.998 -3.521,16.89 -8.537,23.57l89.63,71.7c15.91,12.73 39.5,7.544 48.61,-10.68l57.6,-115.2c-11.303,-7.05 -19.303,-19.05 -19.303,-33.39c0,-22.09 18.8,-40 40.9,-40c22.1,0 39.1,17.91 39.1,40c0,14.34 -7.963,26.34 -19.3,33.4l57.6,115.2c9.111,18.22 32.71,23.4 48.61,10.68l89.63,-71.7c-4.14,-6.68 -7.64,-15.48 -7.64,-23.58c0,-22.1 17.9,-40 40,-40c22.1,0 40,17.9 40,40z"/></g></g></svg>