<svg version="1.1" xmlns="http://www.w3.org/2000/svg" xmlns:xlink="http://www.w3.org/1999/xlink" width="639.98815" height="512" viewBox="0,0,639.98815,512"><g transform="translate(80,76)"><g data-paper-data="{&quot;isPaintingLayer&quot;:true}" fill="#ffffff" fill-rule="nonzero" stroke="none" stroke-width="1" stroke-linecap="butt" stroke-linejoin="miter" stroke-miterlimit="10" stroke-dasharray="" stroke-dashoffset="0" style="mix-blend-mode: normal"><path d="M345.1,415.752c0,5.76 1.589,11.076 3.86,16.06c-4.76,2.461 -9.933,4.188 -15.66,4.188h-378.64c-19.14,0 -34.66,-15.5 -34.66,-34.6c0,-95.7 77.61,-173.4 173.3,-173.4h101.4c15.7,0 30.9,2.3 45.386,6.256c0.24,13.72 7.34,26.427 19.64,33.38l7.655,4.461c-0.0664,2.617 -0.0664,5.238 0,7.859l-8.018,4.669c-15.487,8.37 -23.182,27.18 -17.83,45.24c7.93,25.75 21.81,49.81 40.22,69.9c7.84,8.258 18.26,12.75 28.97,12.75c6.92,0 13.748,-1.848 19.75,-5.352l7.818,-4.493c2.237,1.371 4.506,2.68 6.809,3.93zM16,52c0,-70.69 57.3,-128 128,-128c70.7,0 128,57.31 128,128c0,70.69 -57.3,128 -128,128c-70.7,0 -128,-57.31 -128,-128zM556.29,312.255c2.9999,1.625 4.375,5.125 3.375,8.5c-6.75,21.5 -18.25,41.13 -33.25,57.38c-2.25,2.5 -6.125,3.125 -9,1.375l-25.75,-14.88c-10.88,9.25 -23.38,16.5 -36.88,21.25v29.88c0,3.375 -2.5,6.375 -5.75,7c-21.25,4.875 -43.87,5 -66.25,0c-3.25,-0.625 -5.625,-3.625 -5.625,-7v-29.88c-13.5,-4.75 -26,-12 -36.88,-21.25l-25.88,14.88c-3,1.75 -6.625,1.125 -9,-1.375c-15,-16.38 -26.505,-35.88 -33.13,-57.38c-1,-3.375 0.25,-6.875 3.25,-8.5l25.75,-15c-2.5,-14 -2.5,-28.5 0,-42.5l-25.75,-15c-2.8749,-1.625 -4.25,-5.125 -3.25,-8.5c6.63,-21.5 18.13,-41.13 33.13,-57.38c2.375,-2.5 6.125,-3.125 9,-1.375l25.84,14.93c10.88,-9.25 23.38,-16.5 36.88,-21.25v-29.88c0,-3.375 2.375,-6.375 5.625,-7c21.25,-4.875 44,-5 66.25,0c3.25,0.625 5.75,3.625 5.75,7v29.875c13.5,4.75 26,12 36.88,21.25l25.75,-14.88c3,-1.75 6.75,-1.125 9,1.375c15,16.25 26.5,35.88 33.25,57.38c1,3.375 -0.375,6.875 -3.375,8.5l-25.75,15c2.625,14 2.625,28.5 0,42.5zM464.5,276c0,-26.75 -21.75,-48.5 -48.5,-48.5c-26.75,0 -48.5,21.75 -48.5,48.5c0,26.75 21.75,48.5 48.5,48.5c26.8,0 48.5,-21.75 48.5,-48.5z"/></g></g></svg>