<svg version="1.1" xmlns="http://www.w3.org/2000/svg" xmlns:xlink="http://www.w3.org/1999/xlink" width="640" height="512" viewBox="0,0,640,512"><g transform="translate(80,76)"><g data-paper-data="{&quot;isPaintingLayer&quot;:true}" fill="#ffffff" fill-rule="nonzero" stroke="none" stroke-width="1" stroke-linecap="butt" stroke-linejoin="miter" stroke-miterlimit="10" stroke-dasharray="" stroke-dashoffset="0" style="mix-blend-mode: normal"><path d="M560,219.1c0,125.4 -81.6,194.8 -132.85,213.9c-4.25,1.625 -12.625,3.75 -22.25,0c-64.15,-25.1 -132.9,-102.3 -132.9,-213.9c0,-10 7,-19.9 17.8,-24l115.15,-45.01c9.63,-3.754 18.125,-1.629 22.25,0l115.1,45.01c10.7,4.1 17.7,14 17.7,24zM511.5,234.58l-95.5,-37.38v189.2c34.6,-16.4 89.9,-64.6 95.5,-151.82zM16,52c0,-70.69 57.3,-128 128,-128c70.7,0 128,57.31 128,128c0,70.69 -57.3,128 -128,128c-70.7,0 -128,-57.31 -128,-128zM342.161,434.211c-2.894,0.785 -5.718,1.789 -8.861,1.789h-378.64c-19.14,0 -34.66,-15.5 -34.66,-34.6c0,-95.7 77.61,-173.4 173.3,-173.4h101.4c15.9,0 31.2,2.3 45.9,6.3c3.5,90 49.1,159.5 101.561,199.911z"/></g></g></svg>