<svg version="1.1" xmlns="http://www.w3.org/2000/svg" xmlns:xlink="http://www.w3.org/1999/xlink" width="640" height="512" viewBox="0,0,640,512"><g transform="translate(80,76)"><g data-paper-data="{&quot;isPaintingLayer&quot;:true}" fill="#ffffff" fill-rule="nonzero" stroke="none" stroke-width="1" stroke-linecap="butt" stroke-linejoin="miter" stroke-miterlimit="10" stroke-dasharray="" stroke-dashoffset="0" style="mix-blend-mode: normal"><path d="M560,260v128c0,26.4 -21.6,48 -48,48h-192c-26.4,0 -48,-21.6 -48,-48v-128c0,-26.4 21.6,-48 48,-48h16v-80c0,-46.9 40.5,-84.4 88.34,-79.57c41.63,4.23 71.66,42.43 71.66,84.27v75.3h16c26.4,0 48,21.6 48,48zM448,324c0,-17.62 -14.38,-32 -32,-32c-17.62,0 -32,14.38 -32,32c0,17.62 14.38,32 32,32c17.6,0 32,-14.38 32,-32zM448,132c0,-17.62 -14.38,-32 -32,-32c-17.62,0 -32,14.38 -32,32v80h64zM16,52c0,-70.69 57.3,-128 128,-128c70.7,0 128,57.31 128,128c0,70.69 -57.3,128 -128,128c-70.7,0 -128,-57.31 -128,-128zM240,388c0,18.1 6.3,34.6 16.36,48h-301.7c-19.14,0 -34.66,-15.5 -34.66,-34.6c0,-95.7 77.61,-173.4 173.3,-173.4h101.4c17.2,0 33.9,2.6 49.603,7.3c-2.565,7.83 -4.303,16.028 -4.303,24.7z"/></g></g></svg>